<svg width="26" height="25" viewBox="0 0 26 25" fill="none" xmlns="http://www.w3.org/2000/svg">
<path d="M0.789795 0.789673L1.11974 0.905681C2.76386 1.48372 3.58592 1.77274 4.05612 2.46081C4.52632 3.14889 4.52632 4.06285 4.52632 5.89076V9.32863C4.52632 13.0443 4.6062 14.2705 5.7006 15.4249C6.795 16.5792 8.55641 16.5792 12.0793 16.5792H13.4214M18.7777 16.5792C20.7495 16.5792 21.7354 16.5792 22.4322 16.0112C23.1291 15.4433 23.3282 14.4778 23.7262 12.5465L24.3576 9.48368C24.796 7.28697 25.0152 6.18863 24.4544 5.45967C23.8937 4.73073 21.9778 4.73073 19.8493 4.73073H12.1879M4.52632 4.73073H7.10559M7.73717 19.7371C8.78361 19.7371 9.6319 20.5854 9.6319 21.6318C9.6319 22.6782 8.78361 23.5265 7.73717 23.5265C6.69073 23.5265 5.84243 22.6782 5.84243 21.6318C5.84243 20.5854 6.69073 19.7371 7.73717 19.7371ZM19.1056 19.7372C20.152 19.7372 21.0003 20.5854 21.0003 21.6319C21.0003 22.6783 20.152 23.5267 19.1056 23.5267C18.0592 23.5267 17.2109 22.6783 17.2109 21.6319C17.2109 20.5854 18.0592 19.7372 19.1056 19.7372Z" stroke="#1C274C" stroke-width="1.57895" stroke-linecap="round"/>
</svg>
