<svg width="120" height="120" viewBox="0 0 120 120" fill="none" xmlns="http://www.w3.org/2000/svg">
<path fill-rule="evenodd" clip-rule="evenodd" d="M82.6012 34.0123C80.805 32.9623 78.5138 33.6002 77.4788 35.3627L53.4975 76.9125L40.08 64.5374C38.6625 63.0374 36.2888 62.9627 34.7775 64.3877C33.2663 65.7752 33.1875 68.1748 34.605 69.6748L51.75 85.5002C53.1638 87.0002 55.5375 87.0749 57.0487 85.6499C57.5062 85.2374 83.9737 39.1127 83.9737 39.1127C85.0087 37.3502 84.3938 35.0248 82.6012 34.0123ZM60 112.5C31.005 112.5 7.5 88.9875 7.5 60C7.5 31.0125 31.005 7.5 60 7.5C88.995 7.5 112.5 31.0125 112.5 60C112.5 88.9875 88.995 112.5 60 112.5ZM60 0C26.865 0 0 26.85 0 60C0 93.15 26.865 120 60 120C93.135 120 120 93.15 120 60C120 26.85 93.135 0 60 0Z" fill="#22BB00"/>
</svg>
