<svg width="21" height="23" viewBox="0 0 21 23" fill="none" xmlns="http://www.w3.org/2000/svg">
<path d="M10.5 14.2884C12.2573 14.2884 13.6819 12.8638 13.6819 11.1065C13.6819 9.34913 12.2573 7.92453 10.5 7.92453C8.74267 7.92453 7.31807 9.34913 7.31807 11.1065C7.31807 12.8638 8.74267 14.2884 10.5 14.2884Z" fill="currentColor"/>
<path d="M12.3725 0.661473C11.9826 0.5 11.4884 0.5 10.5 0.5C9.51159 0.5 9.01744 0.5 8.62754 0.661473C8.10779 0.876773 7.69483 1.28974 7.47953 1.80951C7.38125 2.04678 7.34278 2.32272 7.32773 2.72523C7.30562 3.31674 7.00227 3.86425 6.48964 4.16022C5.97703 4.45617 5.3512 4.44512 4.82787 4.16852C4.47177 3.9803 4.21357 3.87563 3.95894 3.84212C3.40114 3.76868 2.83703 3.91983 2.39069 4.26233C2.05593 4.51919 1.80883 4.94718 1.31463 5.80316C0.820432 6.65914 0.573333 7.08712 0.518254 7.50547C0.444825 8.06326 0.595978 8.62737 0.938471 9.07374C1.09479 9.27749 1.31449 9.44867 1.65548 9.66292C2.15675 9.97794 2.47928 10.5145 2.47925 11.1065C2.47922 11.6984 2.1567 12.2349 1.65547 12.5498C1.31444 12.7641 1.0947 12.9354 0.938365 13.1392C0.595872 13.5855 0.444719 14.1496 0.518158 14.7074C0.573227 15.1257 0.820326 15.5538 1.31452 16.4097C1.80873 17.2656 2.05583 17.6937 2.39058 17.9505C2.83692 18.293 3.40104 18.4441 3.95883 18.3707C4.21344 18.3372 4.47163 18.2325 4.82771 18.0444C5.35107 17.7678 5.97694 17.7567 6.4896 18.0526C7.00225 18.3487 7.30562 18.8962 7.32773 19.4878C7.34279 19.8902 7.38125 20.1662 7.47953 20.4035C7.69483 20.9232 8.10779 21.3362 8.62754 21.5515C9.01744 21.7129 9.51159 21.7129 10.5 21.7129C11.4884 21.7129 11.9826 21.7129 12.3725 21.5515C12.8922 21.3362 13.3052 20.9232 13.5204 20.4035C13.6187 20.1662 13.6572 19.8902 13.6723 19.4877C13.6944 18.8962 13.9977 18.3487 14.5103 18.0526C15.0229 17.7566 15.6488 17.7678 16.1722 18.0444C16.5283 18.2325 16.7865 18.3371 17.041 18.3706C17.5988 18.4441 18.163 18.293 18.6093 17.9505C18.944 17.6936 19.1912 17.2656 19.6853 16.4096C20.1796 15.5537 20.4267 15.1257 20.4818 14.7074C20.5551 14.1496 20.404 13.5854 20.0615 13.1391C19.9052 12.9353 19.6854 12.764 19.3444 12.5498C18.8433 12.2349 18.5207 11.6983 18.5207 11.1064C18.5207 10.5144 18.8433 9.97804 19.3444 9.66314C19.6855 9.44878 19.9053 9.27759 20.0616 9.07374C20.4041 8.62745 20.5553 8.06333 20.4819 7.50554C20.4268 7.0872 20.1797 6.65921 19.6854 5.80323C19.1913 4.94726 18.9441 4.51927 18.6094 4.2624C18.1631 3.91991 17.5989 3.76875 17.0411 3.84219C16.7866 3.87571 16.5284 3.98036 16.1722 4.16856C15.6489 4.44517 15.023 4.45623 14.5104 4.16025C13.9977 3.86428 13.6944 3.31672 13.6723 2.72517C13.6572 2.3227 13.6187 2.04677 13.5204 1.80951C13.3052 1.28974 12.8922 0.876773 12.3725 0.661473Z" stroke="currentColor"/>
</svg>
