<svg width="20" height="25" viewBox="0 0 20 25" fill="none" xmlns="http://www.w3.org/2000/svg">
<path d="M4.7 11.22H15.32V12.42H4.7V11.22ZM4.7 16.5H11.2V17.7H4.7V16.5Z" fill="currentColor"/>
<path d="M17.66 24.2H2.34C2.02 24.2 1.72 24.14 1.42 24.02C1.14 23.9 0.88 23.74 0.68 23.52C0.46 23.3 0.3 23.06 0.18 22.78C0.0599999 22.48 0 22.18 0 21.86V5.92C0 5.6 0.0599999 5.3 0.18 5C0.3 4.72 0.46 4.46 0.68 4.26C0.9 4.04 1.14 3.88 1.42 3.76C1.72 3.64 2.02 3.58 2.34 3.58H4.66V4.76H2.34C1.7 4.76 1.16 5.28 1.16 5.94V21.88C1.16 22.52 1.68 23.06 2.34 23.06H17.64C18.28 23.06 18.82 22.54 18.82 21.88V5.92C18.82 5.28 18.3 4.74 17.64 4.74H15.34V3.56H17.66C17.98 3.56 18.28 3.62 18.58 3.74C18.86 3.86 19.12 4.02 19.32 4.24C19.54 4.46 19.7 4.7 19.82 4.98C19.94 5.28 20 5.58 20 5.9V21.84C20 22.16 19.94 22.46 19.82 22.76C19.7 23.04 19.54 23.3 19.32 23.5C19.1 23.72 18.86 23.88 18.58 24C18.28 24.14 17.98 24.2 17.66 24.2Z" fill="currentColor"/>
<path d="M15.88 7.1H4.12V3.26C4.12 2.44 4.78 1.78 5.6 1.78H7.12C7.66 0.7 8.78 0 10.02 0C11.26 0 12.38 0.7 12.92 1.78H14.44C15.26 1.78 15.92 2.44 15.92 3.26L15.88 7.1ZM14.72 5.92V3.26C14.72 3.1 14.58 2.96 14.42 2.96H12.08L11.94 2.56C11.66 1.74 10.88 1.18 10 1.18C9.12 1.18 8.34 1.74 8.06 2.56L7.92 2.96H5.58C5.42 2.96 5.28 3.1 5.28 3.26V5.92H14.72Z" fill="currentColor"/>
</svg>
