<svg width="20" height="22" viewBox="0 0 20 22" xmlns="http://www.w3.org/2000/svg">
<path d="M12.1651 0.580127L17.8349 3.85363C19.1747 4.62713 20 6.05662 20 7.60363V14.1506C20 15.6976 19.1747 17.1271 17.8349 17.9006L12.1651 21.1741C10.8253 21.9476 9.17468 21.9476 7.83494 21.1741L2.16506 17.9006C0.825317 17.1271 0 15.6976 0 14.1506V7.60363C0 6.05662 0.825317 4.62713 2.16506 3.85363L7.83494 0.580127C9.17468 -0.193376 10.8253 -0.193376 12.1651 0.580127ZM8.70733 1.74896L8.55662 1.83013L2.88675 5.10363C2.0406 5.59216 1.50224 6.47319 1.44792 7.44149L1.44338 7.60363V14.1506C1.44338 15.1277 1.93719 16.0344 2.74861 16.5656L2.88675 16.6506L8.55662 19.9241C9.40017 20.4112 10.4286 20.4382 11.2927 20.0053L11.4434 19.9241L17.1132 16.6506C17.9594 16.1621 18.4978 15.2811 18.5521 14.3128L18.5566 14.1506V7.60363C18.5566 6.62657 18.0628 5.71983 17.2514 5.18863L17.1132 5.10363L11.4434 1.83013C10.5998 1.34311 9.57142 1.31605 8.70733 1.74896ZM15.0665 7.67094C15.2536 8.02287 15.12 8.45985 14.7681 8.64697L10.7134 10.8025L10.7134 15.6876C10.7134 16.0862 10.3903 16.4093 9.99172 16.4093C9.59314 16.4093 9.27003 16.0862 9.27003 15.6876L9.27 10.8025L5.21536 8.64697C4.86344 8.45985 4.72984 8.02287 4.91696 7.67094C5.10408 7.31902 5.54106 7.18542 5.89299 7.37254L9.99169 9.55114L14.0905 7.37254C14.4424 7.18542 14.8794 7.31902 15.0665 7.67094Z"  fill="currentColor"/>
</svg>
